<svg width="32" height="32" viewBox="0 0 32 32" fill="none" xmlns="http://www.w3.org/2000/svg">
<g clip-path="url(#clip0_1825_1822)">
<path d="M29.76 0H2.24C1.00288 0 0 1.00288 0 2.24V29.76C0 30.9971 1.00288 32 2.24 32H29.76C30.9971 32 32 30.9971 32 29.76V2.24C32 1.00288 30.9971 0 29.76 0Z" fill="#0F172A"/>
<path d="M15.5798 24.8405C16.4442 24.5259 17.1377 24.0437 17.6604 23.3939C18.1831 22.7442 18.5005 21.9694 18.6125 21.0696L23.5873 19.2589C23.79 21.4626 23.3182 23.4324 22.172 25.1681C21.0193 26.8863 19.3403 28.1466 17.1352 28.9493C14.9477 29.7454 12.8514 29.8591 10.8463 29.2903C8.85891 28.7151 7.21777 27.5544 5.92289 25.8081L3.85888 26.5593L3.00169 24.2042L4.66878 23.5975C4.59335 23.4451 4.49785 23.2102 4.38227 22.8926C4.26028 22.5574 4.176 22.2984 4.12943 22.1156L2.46234 22.7224L1.59552 20.3408L3.686 19.5799C3.56186 17.4275 4.07936 15.5011 5.23849 13.8006C6.40884 12.076 8.07894 10.8189 10.2488 10.0291C12.454 9.2265 14.5534 9.12163 16.5473 9.71449C18.5411 10.3073 20.1687 11.513 21.4299 13.3315L16.4551 15.1422C15.7909 14.5248 15.0529 14.1441 14.2413 14C13.4233 13.8383 12.582 13.9147 11.7176 14.2293C10.8709 14.5375 10.1797 14.9989 9.64417 15.6133C9.10865 16.2278 8.76322 16.9528 8.60789 17.7885L13.027 16.1801L13.8938 18.5617L8.73377 20.4398C8.77392 20.605 8.8582 20.864 8.98662 21.2168C9.10219 21.5343 9.1977 21.7693 9.27312 21.9216L14.4332 20.0435L15.2903 22.3986L10.8183 24.0263C11.4873 24.6019 12.2276 24.9618 13.0393 25.1059C13.8685 25.2436 14.7154 25.1551 15.5798 24.8405Z" fill="#D4AF37"/>
<path d="M25.098 1.45739L30.9687 5.30311L24.1969 7.14648L18.3263 3.30075L25.098 1.45739Z" fill="#F8FAFC"/>
<path d="M26.8835 7.57198L21.5104 6.72097C21.074 6.65186 20.6643 6.94959 20.5951 7.38598L20.2948 9.28234C20.2257 9.71873 20.5234 10.1285 20.9598 10.1976L26.3328 11.0486C26.7692 11.1178 27.179 10.82 27.2481 10.3836L27.5485 8.48728C27.6176 8.05089 27.3198 7.6411 26.8835 7.57198Z" fill="#CBD5E1"/>
<path d="M29.5655 5.61L29.1628 10.6536" stroke="#D4AF37" stroke-width="1.01" stroke-linecap="round"/>
<path d="M29.0877 11.2318C29.6332 11.3182 30.1454 10.946 30.2318 10.4006C30.3182 9.85507 29.946 9.34283 29.4006 9.25643C28.8551 9.17004 28.3428 9.5422 28.2564 10.0877C28.17 10.6332 28.5422 11.1454 29.0877 11.2318Z" fill="#D4AF37"/>
</g>
<defs>
<clipPath id="clip0_1825_1822">
<rect width="32" height="32" fill="white"/>
</clipPath>
</defs>
</svg>
