<svg width="512" height="512" viewBox="0 0 512 512" fill="none" xmlns="http://www.w3.org/2000/svg">
<g clip-path="url(#clip0_1831_204)">
<path d="M249.276 401.37C263.107 396.336 274.204 388.621 282.567 378.225C290.93 367.829 296.007 355.433 297.799 341.035L377.396 312.064C380.64 347.324 373.092 378.84 354.751 406.612C336.308 434.102 309.445 454.268 274.163 467.11C239.163 479.849 205.622 481.668 173.541 472.567C141.743 463.364 115.484 444.792 94.7663 416.851L61.742 428.871L48.0271 391.19L74.7005 381.481C73.4936 379.044 71.9656 375.285 70.1164 370.204C68.1644 364.841 66.8159 360.697 66.0709 357.772L39.3974 367.48L25.5284 329.375L58.976 317.201C56.9898 282.762 65.2698 251.939 83.8158 224.731C102.541 197.138 129.263 177.024 163.981 164.388C199.263 151.546 232.855 149.868 264.757 159.354C296.658 168.839 322.698 188.13 342.878 217.226L263.281 246.196C252.654 236.319 240.847 230.228 227.861 227.922C214.772 225.334 201.313 226.557 187.482 231.591C173.934 236.522 162.875 243.904 154.307 253.735C145.738 263.566 140.212 275.167 137.726 288.538L208.432 262.804L222.301 300.908L139.74 330.958C140.383 333.601 141.731 337.745 143.786 343.39C145.635 348.471 147.163 352.23 148.37 354.668L230.931 324.618L244.646 362.3L173.093 388.343C183.797 397.552 195.642 403.31 208.628 405.616C221.896 407.819 235.446 406.404 249.276 401.37Z" fill="#D4AF37"/>
<path d="M391.855 32.6278L477.193 89.1047L378.579 116.446L293.241 59.9696L391.855 32.6278Z" fill="#0F172A"/>
<path d="M418.364 123.05L339.62 110.578C333.224 109.565 327.215 113.954 326.197 120.381L321.774 148.308C320.756 154.734 325.115 160.765 331.511 161.778L410.254 174.25C416.65 175.263 422.659 170.874 423.677 164.448L428.101 136.52C429.118 130.094 424.759 124.063 418.364 123.05Z" fill="#1E293B"/>
<path d="M457.629 93.5672L452.291 164.409" stroke="#D4AF37" stroke-width="14.34" stroke-linecap="round"/>
<path d="M449.977 179.393C457.9 180.648 465.356 175.142 466.63 167.096C467.905 159.049 462.515 151.509 454.592 150.254C446.669 149 439.213 154.505 437.939 162.552C436.665 170.598 442.054 178.138 449.977 179.393Z" fill="#D4AF37"/>
</g>
<defs>
<clipPath id="clip0_1831_204">
<rect width="512" height="512" fill="white"/>
</clipPath>
</defs>
</svg>
