<svg width="280" height="90" viewBox="0 0 280 90" fill="none" xmlns="http://www.w3.org/2000/svg">
<rect width="280" height="90" fill="#E5E5E5"/>
<g clip-path="url(#clip0_0_286)">
<path d="M268 0H12C5.37258 0 0 5.37258 0 12V78C0 84.6274 5.37258 90 12 90H268C274.627 90 280 84.6274 280 78V12C280 5.37258 274.627 0 268 0Z" fill="#0F172A"/>
<path d="M56.136 41.304V75H47.928V54.792L40.392 75H33.768L26.184 54.744V75H17.976V41.304H27.672L37.128 64.632L46.488 41.304H56.136ZM74.2305 75.384C71.6065 75.384 69.2385 74.824 67.1265 73.704C65.0465 72.584 63.3985 70.984 62.1825 68.904C60.9985 66.824 60.4065 64.392 60.4065 61.608C60.4065 58.856 61.0145 56.44 62.2305 54.36C63.4465 52.248 65.1105 50.632 67.2225 49.512C69.3345 48.392 71.7025 47.832 74.3265 47.832C76.9505 47.832 79.3185 48.392 81.4305 49.512C83.5425 50.632 85.2065 52.248 86.4225 54.36C87.6385 56.44 88.2465 58.856 88.2465 61.608C88.2465 64.36 87.6225 66.792 86.3745 68.904C85.1585 70.984 83.4785 72.584 81.3345 73.704C79.2225 74.824 76.8545 75.384 74.2305 75.384ZM74.2305 68.28C75.7985 68.28 77.1265 67.704 78.2145 66.552C79.3345 65.4 79.8945 63.752 79.8945 61.608C79.8945 59.464 79.3505 57.816 78.2625 56.664C77.2065 55.512 75.8945 54.936 74.3265 54.936C72.7265 54.936 71.3985 55.512 70.3425 56.664C69.2865 57.784 68.7585 59.432 68.7585 61.608C68.7585 63.752 69.2705 65.4 70.2945 66.552C71.3505 67.704 72.6625 68.28 74.2305 68.28ZM108.921 47.928C112.057 47.928 114.553 48.952 116.409 51C118.297 53.016 119.241 55.8 119.241 59.352V75H111.081V60.456C111.081 58.664 110.617 57.272 109.689 56.28C108.761 55.288 107.513 54.792 105.945 54.792C104.377 54.792 103.129 55.288 102.201 56.28C101.273 57.272 100.809 58.664 100.809 60.456V75H92.601V48.216H100.809V51.768C101.641 50.584 102.761 49.656 104.169 48.984C105.577 48.28 107.161 47.928 108.921 47.928Z" fill="#F8FAFC"/>
<path d="M150.899 68.405C152.719 67.5171 154.127 66.3017 155.121 64.7587C156.116 63.2157 156.633 61.4462 156.671 59.4501L167.148 54.3405C168.099 59.1192 167.519 63.5408 165.408 67.6053C163.28 71.6327 159.894 74.7789 155.25 77.0438C150.643 79.2906 146.079 80.022 141.558 79.2379C137.074 78.4358 133.213 76.2719 129.976 72.7461L125.629 74.8661L123.211 69.9066L126.721 68.1943C126.521 67.878 126.258 67.3856 125.932 66.7169C125.587 66.011 125.343 65.4633 125.199 65.0737L121.689 66.7859L119.242 61.7707L123.645 59.6235C122.878 54.9391 123.567 50.6017 125.714 46.6115C127.88 42.566 131.247 39.4289 135.817 37.2002C140.461 34.9353 145.034 34.2225 149.536 35.0618C154.038 35.9011 157.879 38.1665 161.059 41.858L150.583 46.9677C148.987 45.7688 147.283 45.105 145.473 44.9763C143.644 44.8104 141.82 45.1713 140 46.0592C138.217 46.9289 136.809 48.0981 135.778 49.5668C134.747 51.0355 134.157 52.7026 134.01 54.5682L143.316 50.0293L145.762 55.0446L134.895 60.3445C135.021 60.697 135.266 61.2447 135.628 61.9877C135.954 62.6564 136.217 63.1489 136.417 63.4651L147.284 58.1652L149.703 63.1248L140.285 67.718C141.883 68.8244 143.586 69.442 145.397 69.5708C147.244 69.6814 149.078 69.2928 150.899 68.405Z" fill="#D4AF37"/>
<path d="M185.904 68.04V75H181.728C178.752 75 176.432 74.28 174.768 72.84C173.104 71.368 172.272 68.984 172.272 65.688V55.032H169.008V48.216H172.272V41.688H180.48V48.216H185.856V55.032H180.48V65.784C180.48 66.584 180.672 67.16 181.056 67.512C181.44 67.864 182.08 68.04 182.976 68.04H185.904Z" fill="#F8FAFC"/>
<path d="M200.808 48.216V75H192.6V48.216H200.808Z" fill="#F8FAFC"/>
<path d="M196.5 20L213.5 27.5L196.5 35L179.5 27.5L196.5 20Z" fill="#F8FAFC"/>
<path d="M203.512 35H189.553C188.419 35 187.5 35.9377 187.5 37.0944V42.121C187.5 43.2777 188.419 44.2154 189.553 44.2154H203.512C204.645 44.2154 205.565 43.2777 205.565 42.121V37.0944C205.565 35.9377 204.645 35 203.512 35Z" fill="#F8FAFC"/>
<path d="M210.1 28.82L211.161 41.3351" stroke="#D4AF37" stroke-width="2.8" stroke-linecap="round"/>
<path d="M211.352 43.9873C212.816 43.9873 214.003 42.82 214.003 41.38C214.003 39.94 212.816 38.7727 211.352 38.7727C209.887 38.7727 208.7 39.94 208.7 41.38C208.7 42.82 209.887 43.9873 211.352 43.9873Z" fill="#D4AF37"/>
<path d="M204.344 61.608C204.344 58.824 204.904 56.392 206.024 54.312C207.176 52.232 208.76 50.632 210.776 49.512C212.824 48.392 215.16 47.832 217.784 47.832C221.144 47.832 223.944 48.712 226.184 50.472C228.456 52.232 229.944 54.712 230.648 57.912H221.912C221.176 55.864 219.752 54.84 217.64 54.84C216.136 54.84 214.936 55.432 214.04 56.616C213.144 57.768 212.696 59.432 212.696 61.608C212.696 63.784 213.144 65.464 214.04 66.648C214.936 67.8 216.136 68.376 217.64 68.376C219.752 68.376 221.176 67.352 221.912 65.304H230.648C229.944 68.44 228.456 70.904 226.184 72.696C223.912 74.488 221.112 75.384 217.784 75.384C215.16 75.384 212.824 74.824 210.776 73.704C208.76 72.584 207.176 70.984 206.024 68.904C204.904 66.824 204.344 64.392 204.344 61.608ZM233.407 61.56C233.407 58.808 233.919 56.392 234.943 54.312C235.999 52.232 237.423 50.632 239.215 49.512C241.007 48.392 243.007 47.832 245.215 47.832C247.103 47.832 248.751 48.216 250.159 48.984C251.599 49.752 252.703 50.76 253.471 52.008V48.216H261.679V75H253.471V71.208C252.671 72.456 251.551 73.464 250.111 74.232C248.703 75 247.055 75.384 245.167 75.384C242.991 75.384 241.007 74.824 239.215 73.704C237.423 72.552 235.999 70.936 234.943 68.856C233.919 66.744 233.407 64.312 233.407 61.56ZM253.471 61.608C253.471 59.56 252.895 57.944 251.743 56.76C250.623 55.576 249.247 54.984 247.615 54.984C245.983 54.984 244.591 55.576 243.439 56.76C242.319 57.912 241.759 59.512 241.759 61.56C241.759 63.608 242.319 65.24 243.439 66.456C244.591 67.64 245.983 68.232 247.615 68.232C249.247 68.232 250.623 67.64 251.743 66.456C252.895 65.272 253.471 63.656 253.471 61.608Z" fill="#F8FAFC"/>
</g>
<defs>
<clipPath id="clip0_0_286">
<rect width="280" height="90" fill="white"/>
</clipPath>
</defs>
</svg>
